 <svg  xmlns="http://www.w3.org/2000/svg" viewBox="0 0 313.18 214.45"><g id="Слой_2" data-name="Слой 2"><g id="Слой_1-2" data-name="Слой 1"><path d="M45.12,1,154.25,0V214.16h-45V45.26H0ZM8.2,68.12H53l.14,146H8.06ZM19.34,203H41.89V79.25H19.34Zm101.22,0H143V11.43l-93.17.73L27.54,34h93Z"/><path d="M313.18,0V46.73L269.53,85H313l.14,129.2H268.07v-.59L167,214.45V167.72l43.36-37.79L167,129.79V68.12h45V85h56.25V45.26H167l.15-43.94ZM301.9,41.75V11.43l-123.63,1V34H279.49v27.4Zm0,133.15V96.09H200.68V79.25H178.27v39.4H279.35v62H200.68v-27.4l-22.41,19.63v30.32l101.08-.88V203H301.9V174.9ZM212,169.34h56.11l.14-39.41H212Z"/></g></g></svg>